<svg xmlns="http://www.w3.org/2000/svg" xmlns:xlink="http://www.w3.org/1999/xlink" viewBox="0 0 127.62 95.67"><defs><style>.cls-1{fill:none;}.cls-2{fill:#d3bb83;}.cls-3{clip-path:url(#clip-path);}.cls-4{fill:#691d3a;}</style><clipPath id="clip-path" transform="translate(-0.01)"><rect class="cls-1" width="128.07" height="98.14"/></clipPath></defs><title>Recurso 13</title><g id="Capa_2" data-name="Capa 2"><g id="Capa_1-2" data-name="Capa 1"><path class="cls-2" d="M61.9,38c-2.52-3.89-8.3-12.79-8.37-12.92.38-.19.76-.34,1.12-.56A11.22,11.22,0,0,0,59.74,18a14.62,14.62,0,0,0,.43-6.54,11.51,11.51,0,0,0-6-8.85A16.41,16.41,0,0,0,46.3.67q-2.61,0-5.22,0h-5.9A33,33,0,0,0,34.12,23a32.87,32.87,0,0,1-1.46-9.73V38.35c0,.87.26,1.13,1.12,1.14h7.35c.79,0,1-.26,1.09-1.05v-2h0V26.76h2.33c.13.2.26.38.38.57q3.6,5.66,7.2,11.32a1.6,1.6,0,0,0,1.29.84h8.37c.35,0,.45-.19.48-.28C62.46,38.81,62.13,38.37,61.9,38ZM51.23,14c0,2.83-2.68,4.42-5.12,4.42H42.42a.2.2,0,0,1-.2-.2v-9a.2.2,0,0,1,.2-.2h3.77c2.46,0,5,1.38,5,4.44Z" transform="translate(-0.01)"/><path class="cls-2" d="M33.83.65c-.92,0-1.17.25-1.17,1.16V13.29A32.81,32.81,0,0,1,35.18.65Z" transform="translate(-0.01)"/><path class="cls-2" d="M12.65,39.55l3.6,0a20.38,20.38,0,0,0,6.24-1,10.26,10.26,0,0,0,5.24-3.49A10.14,10.14,0,0,0,29.58,30a9.81,9.81,0,0,0-3.85-9.54,12.43,12.43,0,0,0-3.29-1.67A16.41,16.41,0,0,0,24,17.56a8.51,8.51,0,0,0,2.52-5.32c.42-4.09-.9-7.44-4.45-9.71A12,12,0,0,0,15.65.74Q12,.71,8.33.71H1.22C.36.72.11,1,.11,1.86c0,2.25,0,4.5,0,6.75h0q0,14.9,0,29.78c0,.9.25,1.16,1.17,1.15,3.79,0,7.58,0,11.37,0m-3-30.29a.2.2,0,0,1,.21-.2H15a2.79,2.79,0,0,1,2.79,2.79v.57a3.06,3.06,0,0,1-3.07,3.06H9.9a.2.2,0,0,1-.21-.2ZM20.17,27.39a3.78,3.78,0,0,1-3.78,3.78H9.92a.2.2,0,0,1-.2-.2V23.46a.2.2,0,0,1,.2-.21h6.54A3.71,3.71,0,0,1,20.17,27Z" transform="translate(-0.01)"/><path class="cls-2" d="M77.3.82h-.07a18.65,18.65,0,0,0-7.89,4.57A19.38,19.38,0,0,0,63,20v.24a23.59,23.59,0,0,0,.23,2.87v.06l.06.34A19.77,19.77,0,0,0,77.08,39.34h.23m0,0h-.23a20.63,20.63,0,0,0,6,.93c.82-.06,1.65-.1,2.46-.19a19.72,19.72,0,0,0,7.09-2.35c.11-.06.21-.13.32-.18l.84-.51.33-.22c.21-.14.43-.29.63-.44l.62-.45.3-.24.27-.23.3-.24.3-.28.24-.22.11-.11c.41-.41.39-.78,0-1.24l-.27-.28-1.78-1.78-.7-.68a1,1,0,0,0-.45-.3.9.9,0,0,0-.77.2c-.15.1-.41.31-.55.43a14.06,14.06,0,0,1-9.85,3.25,13.09,13.09,0,0,1-10.91-6.32,14.18,14.18,0,0,1-1.3-13A13.72,13.72,0,0,1,89.81,7.6c1,.53,2.3,1.54,3.24,2.18a1.35,1.35,0,0,0,.73.32l0,0,0,0a.85.85,0,0,0,.61-.31l1-1,1.2-1.21.31-.3c.45-.47.6-.78.46-1.11a2.23,2.23,0,0,0-.61-.71A20.88,20.88,0,0,0,83,0a19.44,19.44,0,0,0-2.27.13,20.46,20.46,0,0,0-3.45.69h.07" transform="translate(-0.01)"/><path class="cls-2" d="M91,13.22c.31-.35.3-.53,0-.87a9.25,9.25,0,0,0-2.83-2,10.56,10.56,0,0,0-6.53-.8l-.14,0-.32.08h0c.55,2.66,5.92,5.73,7.14,6.27a1,1,0,0,0,.17-.14C89.25,14.89,90.15,14.11,91,13.22Z" transform="translate(-0.01)"/><path class="cls-2" d="M92.9,18.33H84a1.38,1.38,0,0,0-.29,0c-.26,0-.41.17-.41.43q0,1.65,0,3.3a.42.42,0,0,0,.37.43c.12,0,4.41,0,4.65,0h0a3,3,0,0,1,0,.41,3.55,3.55,0,0,1-.53,1.25h0A3.74,3.74,0,0,1,86,25.5a6.25,6.25,0,0,1-3.29.29,5.2,5.2,0,0,1-3.9-2.66,6.12,6.12,0,0,1-.66-4.19,5.22,5.22,0,0,1,3-4,6,6,0,0,1,5.92.43c.28.17.44.28.71.47a.44.44,0,0,0,.51.07,10.5,10.5,0,0,0-7.14-6.27h0c-.38.1-.75.21-1.13.35a10.28,10.28,0,0,0-7.21,9.22,10.16,10.16,0,0,0,3.86,9.12,12,12,0,0,0,3,1.82h0l.1,0,.22.08.43.15.22.07.46.13.24.05.25.05.28.06.21,0a2,2,0,0,0,.24,0l.23,0,.27,0c.25,0,.51,0,.76,0a11.73,11.73,0,0,0,3.3-.49c.19-.05.38-.12.56-.18h0c.19-.06.37-.14.55-.21h0l.19-.09c.13-.06.26-.12.38-.19l.19-.1h0c.16-.09.32-.18.47-.28s.31-.21.45-.31a7.87,7.87,0,0,0,.82-.71,3.51,3.51,0,0,0,.33-.34l.13-.14h0l.42-.53.15-.22a4.53,4.53,0,0,0,.3-.46h0c.1-.16.19-.32.28-.49h0c.09-.16.17-.33.25-.51a11,11,0,0,0,.53-1.36,13,13,0,0,0,.5-4.16V18.78A.45.45,0,0,0,92.9,18.33Z" transform="translate(-0.01)"/><path class="cls-2" d="M127.48,26.09c0-.21-.06-.42-.1-.62s0-.17,0-.25,0-.23-.08-.34a2.29,2.29,0,0,0-.07-.28l0-.11c0-.09-.05-.17-.07-.25l-.06-.19c0-.08-.06-.15-.09-.24a.25.25,0,0,0,0-.07c0-.11-.08-.22-.13-.33s-.09-.22-.14-.33l-.15-.31a1.28,1.28,0,0,0-.11-.2,6.44,6.44,0,0,0-.42-.72l-.12-.18-.2-.27a3.76,3.76,0,0,0-.25-.31l-.25-.3h0l-.27-.29-.48-.45a16.62,16.62,0,0,0-2-1.46h0a12,12,0,0,0-1.21-.68c-1.52-.76-3.15-1.31-4.74-1.93-1.21-.47-2.45-.87-3.65-1.39a5.83,5.83,0,0,1-1.65-1.13,2.3,2.3,0,0,1,.32-3.58A4.49,4.49,0,0,1,113,9.24a7.31,7.31,0,0,1,4.67.63c1.07.51,2.08,1.15,3.11,1.74a1.35,1.35,0,0,0,.88.24,29.34,29.34,0,0,0-1.92-5.67,29.34,29.34,0,0,1,1.92,5.67,1.15,1.15,0,0,0,.59-.45c1.29-1.59,2.56-3.18,3.84-4.79.49-.62.45-1-.16-1.5s-1.44-1.22-2.21-1.76A16.91,16.91,0,0,0,116.19.28c.38.48.73,1,1.08,1.49-.35-.51-.7-1-1.08-1.49a15,15,0,0,0-2-.13,17,17,0,0,0-4.85.73,10.95,10.95,0,0,0-8.14,11.89,9.82,9.82,0,0,0,3.51,6.89c.29.24.58.47.88.69h0l.42.3a2.9,2.9,0,0,1,.29.19l.48.29.47.27c.31.17.63.34,1,.49a2.53,2.53,0,0,0,.37.18l.44.21,1.24.53c.42.18.84.35,1.27.51,1.27.51,2.54,1,3.79,1.55a7.91,7.91,0,0,1,2.14,1.35,1,1,0,0,1,.2.2,2.68,2.68,0,0,1,.45.68,2.8,2.8,0,0,1,.2.74,2.68,2.68,0,0,1-.12,1.05,1.88,1.88,0,0,1-.12.3,2.58,2.58,0,0,1-.25.42,3.9,3.9,0,0,1-.33.38,3.5,3.5,0,0,1-.43.33,4.32,4.32,0,0,1-.94.46,3.18,3.18,0,0,1-.6.18,9.88,9.88,0,0,1-5.54-.52l-.52-.2L109,30c-.33-.16-.65-.33-1-.52-.47-.28-.93-.58-1.37-.9l-.88-.66c-.57-.44-.95-.47-1.39,0l-.09.1c-1.4,1.55-2.78,3.12-4.15,4.69a.94.94,0,0,0-.29.75,1,1,0,0,0,0,.17s0,.11.07.17a2.85,2.85,0,0,0,.17.26h0c.14.18.29.36.45.53l.17.17a19.14,19.14,0,0,0,2.85,2.33c.25.17.5.33.76.48l.76.43a18.33,18.33,0,0,0,4.44,1.65l.83.18a19.38,19.38,0,0,0,2.13.27,3.59,3.59,0,0,0,.47,0h0l.39,0a20.26,20.26,0,0,0,5-.63l.74-.22.73-.26c.27-.11.55-.22.81-.34a12.75,12.75,0,0,0,3.93-2.7,12.09,12.09,0,0,0,.88-1l.28-.39.27-.4c.17-.26.32-.53.47-.8s.26-.54.38-.82a11.86,11.86,0,0,0,.43-1.27A13.09,13.09,0,0,0,127.48,26.09Z" transform="translate(-0.01)"/><g class="cls-3"><path class="cls-2" d="M126,95.67H1.49A1.48,1.48,0,0,1,0,94.19V81.47A1.49,1.49,0,0,1,1.49,80H126a1.49,1.49,0,0,1,1.49,1.49V94.19A1.49,1.49,0,0,1,126,95.67" transform="translate(-0.01)"/><rect class="cls-2" y="48.48" width="127.52" height="1.39"/></g><path class="cls-4" d="M25,90.93a3.42,3.42,0,0,1-2.31.82,3.83,3.83,0,0,1-.09-7.65,3.42,3.42,0,0,1,2.26.71l-.28.43a3.12,3.12,0,0,0-2-.58,3.28,3.28,0,0,0,.12,6.54,3.18,3.18,0,0,0,2-.71Z" transform="translate(-0.01)"/><path class="cls-4" d="M28.22,84.2h4.13v.55H28.81V87.6H32v.55H28.81V91.1h3.64v.55H28.22Z" transform="translate(-0.01)"/><path class="cls-4" d="M36,91.65V84.2l1.79,0c2,0,2.61,1,2.61,2.15a2.15,2.15,0,0,1-1.77,2.08l2.61,3.24h-.72l-2.48-3.13H36.63v3.13Zm.59-6.9V88h1.29a1.8,1.8,0,0,0,1.9-1.64c0-.91-.51-1.6-2-1.6Z" transform="translate(-0.01)"/><path class="cls-4" d="M43.07,84.2h6.1v.55H46.41v6.9h-.58v-6.9H43.07Z" transform="translate(-0.01)"/><path class="cls-4" d="M52.42,84.2H53v7.45h-.58Z" transform="translate(-0.01)"/><path class="cls-4" d="M57.33,84.2h4.16v.55H57.91v3.07h3.26v.55H57.91v3.28h-.58Z" transform="translate(-0.01)"/><path class="cls-4" d="M65.06,84.2h.58v7.45h-.58Z" transform="translate(-0.01)"/><path class="cls-4" d="M75.41,90.93a3.42,3.42,0,0,1-2.31.82A3.83,3.83,0,0,1,73,84.1a3.42,3.42,0,0,1,2.26.71l-.28.43a3.12,3.12,0,0,0-2-.58,3.28,3.28,0,0,0,.12,6.54,3.18,3.18,0,0,0,2-.71Z" transform="translate(-0.01)"/><path class="cls-4" d="M80.94,84.13h.48l3.25,7.52H84L83,89.12H79.38l-1.09,2.53H77.7Zm-1.33,4.44h3.1l-1.54-3.63Z" transform="translate(-0.01)"/><path class="cls-4" d="M86.13,84.2h6.1v.55H89.47v6.9h-.58v-6.9H86.13Z" transform="translate(-0.01)"/><path class="cls-4" d="M95.22,84.2h4.12v.55H95.81V87.6H99v.55H95.81V91.1h3.64v.55H95.22Z" transform="translate(-0.01)"/><path class="cls-4" d="M103.05,84.2h.12c.53,0,1.14,0,1.79,0,3,0,4.18,1.71,4.18,3.65,0,2.13-1.43,3.86-4.27,3.86-.54,0-1.13,0-1.73,0h-.09Zm.58.55V91.1l1.26,0c2.4,0,3.63-1.44,3.63-3.3s-1.1-3.1-3.59-3.1C104.38,84.72,104.08,84.74,103.63,84.75Z" transform="translate(-0.01)"/><path class="cls-2" d="M8.6,57.83H9.66L14,68H12.69l-1.3-3.06H6.79L5.5,68H4.26Zm-1.32,6h3.63L9.09,59.46Z" transform="translate(-0.01)"/><path class="cls-2" d="M16.1,67a.93.93,0,0,1-.16-.54.84.84,0,0,1,.18-.54,2.26,2.26,0,0,1-1.46-2.14,2.43,2.43,0,0,1,2.65-2.38,2.94,2.94,0,0,1,1.65.48l1.9-.46,0,.93-1.23.31A2.08,2.08,0,0,1,20,63.73a2.43,2.43,0,0,1-2.66,2.34,3.17,3.17,0,0,1-.43,0,.8.8,0,0,0-.07.36.74.74,0,0,0,.13.44l.39,0c1.89,0,3.3.68,3.3,2.09S19.22,71,17.33,71,14,70.34,14,68.92C14,67.87,14.86,67.21,16.1,67Zm1.23,3.1c1.34,0,2.22-.39,2.22-1.13s-.84-1.15-2.22-1.15-2.22.43-2.22,1.15S16,70.05,17.33,70.05Zm0-4.92a1.43,1.43,0,1,0,0-2.84,1.45,1.45,0,0,0-1.57,1.44A1.42,1.42,0,0,0,17.31,65.13Z" transform="translate(-0.01)"/><path class="cls-2" d="M27.52,67.28a3.66,3.66,0,0,1-2.43.85,3.23,3.23,0,0,1-3.48-3.39A3.19,3.19,0,0,1,25,61.35a2.9,2.9,0,0,1,3,3,4,4,0,0,1-.07.78h-5a2.07,2.07,0,0,0,2.26,2,3,3,0,0,0,2-.68Zm-4.68-3.12h3.93a1.72,1.72,0,0,0-1.87-1.73A2,2,0,0,0,22.84,64.16Z" transform="translate(-0.01)"/><path class="cls-2" d="M29.54,61.5H30.7v.79a3,3,0,0,1,2.12-.91c1.68,0,2.69.82,2.69,2.86V68H34.36V64.45c0-1.35-.62-2-1.83-2a2.46,2.46,0,0,0-1.83.84V68H29.54Z" transform="translate(-0.01)"/><path class="cls-2" d="M37.31,59.69h1.16V61.5h2.38v1.08H38.47V65.4c0,1,.33,1.62,1.15,1.62a1.7,1.7,0,0,0,1-.36l.37.89a2.65,2.65,0,0,1-1.66.55c-1.46,0-2-.92-2-2.58Z" transform="translate(-0.01)"/><path class="cls-2" d="M42.33,63.18c0-1.13.93-1.83,2.21-1.83a3.22,3.22,0,0,1,2.23.77l-.54.88a2.46,2.46,0,0,0-1.63-.64c-.65,0-1,.38-1,.81,0,1.37,3.5.72,3.5,3,0,1.37-1.21,2-2.51,2a3.21,3.21,0,0,1-2.39-1l.65-.82a2.84,2.84,0,0,0,1.87.82c.61,0,1.16-.3,1.16-.89C45.84,64.91,42.33,65.56,42.33,63.18Z" transform="translate(-0.01)"/><path class="cls-2" d="M52,61.94a4.14,4.14,0,0,1,2.16-.59c1.85,0,2.49,1,2.49,2.66v4H55.6v-.84a2.49,2.49,0,0,1-2.08.94,1.87,1.87,0,0,1-2-2C51.53,64.76,52.59,64,54,64a2.89,2.89,0,0,1,1.62.42c0-1.21-.19-2-1.47-2a3.38,3.38,0,0,0-1.79.48Zm3.56,4.27v-.82A2.47,2.47,0,0,0,54.14,65c-.69,0-1.38.32-1.38,1.07s.42,1,1.17,1A2.09,2.09,0,0,0,55.6,66.21Z" transform="translate(-0.01)"/><path class="cls-2" d="M58.63,61.5h1.15v.79a3,3,0,0,1,2.12-.91c1.69,0,2.7.82,2.7,2.86V68H63.44V64.45c0-1.35-.62-2-1.83-2a2.49,2.49,0,0,0-1.83.84V68H58.63Z" transform="translate(-0.01)"/><path class="cls-2" d="M71.3,67.16a2.77,2.77,0,0,1-2.06.94,3,3,0,0,1-3.13-3.32,3.37,3.37,0,0,1,3.55-3.43,2.72,2.72,0,0,1,1.64.46V57.89h1.16V68H71.3Zm0-1V62.94a2.92,2.92,0,0,0-1.6-.51,2.27,2.27,0,0,0-2.36,2.33A2.07,2.07,0,0,0,69.46,67,2.58,2.58,0,0,0,71.3,66.15Z" transform="translate(-0.01)"/><path class="cls-2" d="M78.25,57.91c.56,0,1.83-.06,2.77-.06,2.41,0,3.24,1.09,3.24,2.49a2.35,2.35,0,0,1-1.73,2.34v0a2.28,2.28,0,0,1,2.1,2.39C84.63,67.15,83.05,68,81,68c-.89,0-2.12,0-2.71-.06Zm1.23,1.14V62.3h1.61a1.73,1.73,0,0,0,2-1.68c0-1-.71-1.62-2.05-1.62C80.46,59,79.84,59,79.48,59.05Zm0,4.34v3.43c.33,0,1,.06,1.55.06,1.49,0,2.37-.61,2.37-1.85,0-1.07-.84-1.64-2.29-1.64Z" transform="translate(-0.01)"/><path class="cls-2" d="M86.67,61.5h1.16v.76a1.83,1.83,0,0,1,1.63-.88,1.51,1.51,0,0,1,1,.25l-.4,1.08a1.51,1.51,0,0,0-2.23.68V68H86.67Z" transform="translate(-0.01)"/><path class="cls-2" d="M94.6,61.35a3.39,3.39,0,1,1-3.46,3.39A3.28,3.28,0,0,1,94.6,61.35Zm0,5.7a2.17,2.17,0,0,0,2.24-2.31,2.24,2.24,0,1,0-2.24,2.31Z" transform="translate(-0.01)"/><path class="cls-2" d="M99.72,57.89h1.16V68H99.72Zm2.8,6.62,3.1,3.48h-1.57l-2.93-3.39,2.68-3.1h1.47Z" transform="translate(-0.01)"/><path class="cls-2" d="M111.94,67.28a3.69,3.69,0,0,1-2.44.85,3.39,3.39,0,1,1-.13-6.78,2.9,2.9,0,0,1,3,3,4,4,0,0,1-.07.78h-5a2.08,2.08,0,0,0,2.27,2,3,3,0,0,0,2-.68Zm-4.69-3.12h3.94a1.73,1.73,0,0,0-1.88-1.73A2,2,0,0,0,107.25,64.16Z" transform="translate(-0.01)"/><path class="cls-2" d="M114,61.5h1.15v.76a1.84,1.84,0,0,1,1.63-.88,1.56,1.56,0,0,1,1,.25l-.41,1.08a1.4,1.4,0,0,0-.88-.25,1.43,1.43,0,0,0-1.35.93V68H114Z" transform="translate(-0.01)"/><path class="cls-2" d="M118.64,63.18c0-1.13.92-1.83,2.21-1.83a3.24,3.24,0,0,1,2.23.77l-.55.88a2.41,2.41,0,0,0-1.62-.64c-.65,0-1,.38-1,.81,0,1.37,3.5.72,3.5,3,0,1.37-1.21,2-2.51,2a3.21,3.21,0,0,1-2.39-1l.65-.82a2.84,2.84,0,0,0,1.87.82c.61,0,1.16-.3,1.16-.89C122.15,64.91,118.64,65.56,118.64,63.18Z" transform="translate(-0.01)"/></g></g></svg>