<svg xmlns="http://www.w3.org/2000/svg" xmlns:xlink="http://www.w3.org/1999/xlink" viewBox="0 0 127.62 95.67"><defs><style>.cls-1{fill:none;}.cls-12,.cls-2,.cls-4,.cls-6{opacity:0.75;}.cls-12,.cls-3,.cls-4{fill:#d3bb83;}.cls-5{clip-path:url(#clip-path);}.cls-6{font-size:10.65px;fill:#691d3a;font-family:Circe-Light, Circe;font-weight:300;}.cls-7{letter-spacing:0.16em;}.cls-8{letter-spacing:0.16em;}.cls-9{letter-spacing:0.13em;}.cls-10{letter-spacing:0.16em;}.cls-11{letter-spacing:0.11em;}.cls-12{font-size:14.42px;font-family:Circe-Regular, Circe;}.cls-13{letter-spacing:-0.02em;}.cls-14{letter-spacing:0em;}.cls-15{letter-spacing:-0.02em;}</style><clipPath id="clip-path" transform="translate(-0.01)"><rect class="cls-1" width="128.07" height="98.14"/></clipPath></defs><title>Recurso 10</title><g id="Capa_2" data-name="Capa 2"><g id="Capa_1-2" data-name="Capa 1"><g class="cls-2"><path class="cls-3" d="M9.72,31V23.46a.2.2,0,0,1,.2-.21h6.54A3.71,3.71,0,0,1,20.17,27v.43a3.78,3.78,0,0,1-3.78,3.78H9.92a.2.2,0,0,1-.2-.2m0-15.69v-6a.2.2,0,0,1,.21-.2H15a2.79,2.79,0,0,1,2.79,2.79v.57a3.06,3.06,0,0,1-3.07,3.06H9.9a.2.2,0,0,1-.21-.2M1.22.72C.36.72.11,1,.11,1.86c0,2.25,0,4.5,0,6.75A54.36,54.36,0,0,0,12.65,39.55l3.6,0a20.38,20.38,0,0,0,6.24-1,10.26,10.26,0,0,0,5.24-3.49A10.14,10.14,0,0,0,29.58,30a9.81,9.81,0,0,0-3.85-9.54,12.43,12.43,0,0,0-3.29-1.67A16.41,16.41,0,0,0,24,17.56a8.51,8.51,0,0,0,2.52-5.32c.42-4.09-.9-7.44-4.45-9.71A12,12,0,0,0,15.65.74Q12,.71,8.33.71H1.22" transform="translate(-0.01)"/></g><g class="cls-2"><path class="cls-3" d="M77.23.82a18.65,18.65,0,0,0-7.89,4.57A19.38,19.38,0,0,0,63,20v.24a23.59,23.59,0,0,0,.23,2.87v.06l.06.34A19.77,19.77,0,0,0,77.08,39.34h.23a19.26,19.26,0,0,0,16.31-9h0a.9.9,0,0,0-.77.2c-.15.1-.41.31-.55.42a14,14,0,0,1-9.85,3.26,13.09,13.09,0,0,1-10.91-6.32,14.18,14.18,0,0,1-1.3-13A13.72,13.72,0,0,1,89.81,7.6c1,.53,2.3,1.54,3.24,2.18a1.35,1.35,0,0,0,.73.32,2.26,2.26,0,0,1-.16-.26A19.26,19.26,0,0,0,77.3.82Z" transform="translate(-0.01)"/></g><g class="cls-2"><path class="cls-3" d="M61.9,38c-2.52-3.89-8.3-12.79-8.37-12.92.38-.19.76-.34,1.12-.56A11.22,11.22,0,0,0,59.74,18a14.63,14.63,0,0,0,.43-6.54,11.51,11.51,0,0,0-6-8.85A16.41,16.41,0,0,0,46.3.67q-2.61,0-5.22,0h-5.9A33,33,0,0,0,34.12,23a32.87,32.87,0,0,1-1.46-9.73V38.35c0,.87.26,1.13,1.12,1.14h7.35c.79,0,1-.26,1.09-1.05v-2h0V26.76h2.33c.13.2.26.38.38.57q3.6,5.66,7.2,11.32a1.6,1.6,0,0,0,1.29.84h8.37c.35,0,.45-.19.48-.28C62.46,38.81,62.13,38.37,61.9,38ZM51.23,14c0,2.83-2.68,4.42-5.12,4.42H42.42a.2.2,0,0,1-.2-.2v-9a.2.2,0,0,1,.2-.2h3.77c2.46,0,5,1.38,5,4.44Z" transform="translate(-0.01)"/><path class="cls-3" d="M33.83.65c-.92,0-1.17.25-1.17,1.16V13.29A32.81,32.81,0,0,1,35.18.65Z" transform="translate(-0.01)"/></g><path class="cls-4" d="M.11,8.61q0,14.9,0,29.79c0,.9.25,1.16,1.17,1.15,3.79,0,7.58,0,11.37,0A54.36,54.36,0,0,1,.11,8.61Z" transform="translate(-0.01)"/><g class="cls-2"><path class="cls-3" d="M80.68.13a19.52,19.52,0,0,0-3.45.69h.07A19.25,19.25,0,0,1,93.78,10.1a.85.85,0,0,0,.61-.31l1-1c.41-.4.8-.79,1.2-1.2l.31-.3c.45-.47.6-.78.46-1.11a2.23,2.23,0,0,0-.61-.71A20.88,20.88,0,0,0,83,0a19.44,19.44,0,0,0-2.27.13" transform="translate(-0.01)"/></g><g class="cls-2"><path class="cls-3" d="M77.31,39.34h-.23a20.63,20.63,0,0,0,6,.93c.82-.06,1.65-.1,2.46-.19a19.72,19.72,0,0,0,7.09-2.35c.11-.06.21-.13.32-.18l.84-.51.33-.22c.21-.14.43-.29.63-.44l.62-.45.3-.24.27-.23.3-.24.3-.28.24-.22.11-.11c.41-.41.39-.78,0-1.24l-.27-.28-1.78-1.78-.7-.68a1,1,0,0,0-.45-.3,19.26,19.26,0,0,1-16.31,9" transform="translate(-0.01)"/></g><g class="cls-2"><path class="cls-3" d="M91,13.22c.31-.35.3-.53,0-.87a9.25,9.25,0,0,0-2.83-2,10.56,10.56,0,0,0-6.53-.8l-.14,0-.32.08h0c.55,2.66,5.92,5.73,7.14,6.27a1,1,0,0,0,.17-.14C89.25,14.89,90.15,14.11,91,13.22Z" transform="translate(-0.01)"/><path class="cls-3" d="M92.9,18.33H84a1.38,1.38,0,0,0-.29,0c-.26,0-.41.17-.41.43q0,1.65,0,3.3a.42.42,0,0,0,.37.43c.12,0,4.41,0,4.65,0h0a3,3,0,0,1,0,.41,3.55,3.55,0,0,1-.53,1.25h0A3.74,3.74,0,0,1,86,25.5a6.25,6.25,0,0,1-3.29.29,5.22,5.22,0,0,1-3.9-2.66,6.12,6.12,0,0,1-.66-4.19,5.25,5.25,0,0,1,3-4,6,6,0,0,1,5.92.44c.28.17.44.28.71.47a.44.44,0,0,0,.51.07,10.5,10.5,0,0,0-7.14-6.27h0c-.38.1-.75.21-1.13.35a10.28,10.28,0,0,0-7.21,9.22,10.16,10.16,0,0,0,3.86,9.12,12,12,0,0,0,3,1.82h0l.1,0,.22.08.43.15.22.07.46.13.24.05.25.05.28.06.21,0a2,2,0,0,0,.24,0l.23,0,.27,0c.25,0,.51,0,.76,0a11.73,11.73,0,0,0,3.3-.49c.19-.05.38-.12.56-.18h0l.55-.21h0l.19-.09c.13-.06.26-.12.38-.19l.19-.1h0c.16-.09.32-.18.47-.28s.31-.21.45-.31a7.87,7.87,0,0,0,.82-.71,3.51,3.51,0,0,0,.33-.34l.13-.15h0l.42-.53.15-.22a4.53,4.53,0,0,0,.3-.46h0c.1-.16.19-.32.28-.49h0c.09-.16.17-.33.25-.51a11,11,0,0,0,.53-1.36,13,13,0,0,0,.5-4.16V18.78A.45.45,0,0,0,92.9,18.33Z" transform="translate(-0.01)"/></g><g class="cls-2"><path class="cls-3" d="M127.48,26.09c0-.21-.06-.42-.1-.62s0-.17,0-.25,0-.23-.08-.34a2.29,2.29,0,0,0-.07-.28l0-.11c0-.09-.05-.17-.07-.25l-.06-.19c0-.08-.06-.15-.09-.24a.25.25,0,0,0,0-.07c0-.11-.08-.22-.13-.33s-.09-.22-.14-.33l-.15-.31a1.28,1.28,0,0,0-.11-.2,6.44,6.44,0,0,0-.42-.72l-.12-.18-.2-.27a3.76,3.76,0,0,0-.25-.31l-.25-.3h0l-.27-.29c-.15-.15-.32-.31-.48-.45a16.62,16.62,0,0,0-2-1.46h0a12,12,0,0,0-1.21-.68c-1.52-.76-3.15-1.31-4.74-1.93-1.21-.47-2.45-.87-3.65-1.39a5.83,5.83,0,0,1-1.65-1.13,2.3,2.3,0,0,1,.32-3.58A4.3,4.3,0,0,1,113,9.24a7.31,7.31,0,0,1,4.67.63c1.07.51,2.08,1.14,3.11,1.74a1.35,1.35,0,0,0,.88.24,29.34,29.34,0,0,0-1.92-5.67,29.34,29.34,0,0,1,1.92,5.67,1.15,1.15,0,0,0,.59-.45c1.29-1.59,2.56-3.18,3.84-4.79.49-.62.45-1-.16-1.5s-1.44-1.22-2.21-1.76A16.91,16.91,0,0,0,116.19.28c.38.48.73,1,1.08,1.49-.35-.51-.7-1-1.08-1.49a15,15,0,0,0-2-.13,17.38,17.38,0,0,0-4.85.72,11.14,11.14,0,0,0-7.22,6.05,11.16,11.16,0,0,0-.92,5.85,9.82,9.82,0,0,0,3.51,6.89c.29.24.58.47.88.69h0l.42.3a2.9,2.9,0,0,1,.29.19l.48.29.47.27c.31.17.63.34,1,.49.12.07.24.12.37.18l.44.21,1.24.53c.42.18.84.35,1.27.51,1.27.51,2.54,1,3.79,1.55a7.91,7.91,0,0,1,2.14,1.35,1,1,0,0,1,.2.2,2.68,2.68,0,0,1,.45.68,2.8,2.8,0,0,1,.2.74,2.61,2.61,0,0,1-.12,1,1.66,1.66,0,0,1-.12.31,2.58,2.58,0,0,1-.25.42,3.9,3.9,0,0,1-.33.38,3.5,3.5,0,0,1-.43.33,4.32,4.32,0,0,1-.94.46,3.18,3.18,0,0,1-.6.18,9.88,9.88,0,0,1-5.54-.52l-.52-.2L109,30c-.33-.16-.65-.33-1-.52-.47-.28-.93-.58-1.37-.9l-.88-.66c-.57-.44-.95-.47-1.39,0l-.09.1c-1.4,1.55-2.78,3.12-4.15,4.69a.94.94,0,0,0-.29.75,1,1,0,0,0,0,.17s0,.11.07.17a2.85,2.85,0,0,0,.17.26h0c.14.18.29.36.45.53l.17.17a19.14,19.14,0,0,0,2.85,2.33c.25.17.5.32.76.48l.76.43a18.33,18.33,0,0,0,4.44,1.65l.83.18a19.38,19.38,0,0,0,2.13.27,3.59,3.59,0,0,0,.47,0h0l.39,0a20.26,20.26,0,0,0,5-.63l.74-.23c.24-.08.48-.16.73-.26s.55-.21.81-.33a12.75,12.75,0,0,0,3.93-2.7,12.09,12.09,0,0,0,.88-1l.28-.39.27-.4c.17-.26.32-.53.47-.8s.26-.54.38-.82a11.86,11.86,0,0,0,.43-1.27A13.09,13.09,0,0,0,127.48,26.09Z" transform="translate(-0.01)"/></g><g class="cls-2"><g class="cls-5"><path class="cls-3" d="M126,95.67H1.49A1.48,1.48,0,0,1,0,94.19V81.47A1.49,1.49,0,0,1,1.49,80H126a1.49,1.49,0,0,1,1.49,1.49V94.19A1.49,1.49,0,0,1,126,95.67" transform="translate(-0.01)"/><rect class="cls-3" y="48.48" width="127.52" height="1.39"/></g></g><text class="cls-6" transform="translate(18.35 91.65)"><tspan class="cls-7">C</tspan><tspan class="cls-8" x="8.69" y="0">E</tspan><tspan class="cls-9" x="16.5" y="0">R</tspan><tspan class="cls-10" x="24.61" y="0">TIFIC</tspan><tspan class="cls-11" x="59.12" y="0">A</tspan><tspan class="cls-7" x="67.67" y="0">TE</tspan><tspan x="83.51" y="0">D</tspan></text><text class="cls-12" transform="translate(4.04 67.99)"><tspan class="cls-13">A</tspan><tspan class="cls-14" x="9.83" y="0">gents and Bro</tspan><tspan class="cls-15" x="94.64" y="0">k</tspan><tspan x="101.37" y="0">ers</tspan></text></g></g></svg>