<svg id="Capa_1" data-name="Capa 1" xmlns="http://www.w3.org/2000/svg" viewBox="0 0 164.13 108"><defs><style>.cls-1{fill:#fff;}.cls-2{fill:#ddbf7c;}</style></defs><title>logo-light_P175</title><path class="cls-1" d="M5.44,98h4a7.86,7.86,0,0,1,1.61.17,4.17,4.17,0,0,1,1.39.55,3.05,3.05,0,0,1,1,1,3.24,3.24,0,0,1-.24,3.43,3.42,3.42,0,0,1-1.69,1.08v0a3.34,3.34,0,0,1,1.18.33,3.17,3.17,0,0,1,1,.7,2.82,2.82,0,0,1,.62,1,3.31,3.31,0,0,1,.23,1.22,3.24,3.24,0,0,1-.46,1.81,3.36,3.36,0,0,1-1.19,1.12,5.14,5.14,0,0,1-1.65.59,10.5,10.5,0,0,1-1.84.17H5.44ZM7,103.57H9.16a7.88,7.88,0,0,0,1.09-.07,2.66,2.66,0,0,0,.95-.31,1.73,1.73,0,0,0,.69-.65,2,2,0,0,0,.26-1.11,1.81,1.81,0,0,0-.24-1,1.7,1.7,0,0,0-.64-.61,2.64,2.64,0,0,0-.91-.3,6,6,0,0,0-1-.09H7Zm0,6.14H9.64a5.54,5.54,0,0,0,1.15-.12,3.48,3.48,0,0,0,1-.39,2.07,2.07,0,0,0,.73-.71,1.88,1.88,0,0,0,.28-1.06,2.29,2.29,0,0,0-.27-1.16,2.07,2.07,0,0,0-.7-.74,2.8,2.8,0,0,0-1-.39A5.64,5.64,0,0,0,9.68,105H7Z" transform="translate(-5.44 -3.5)"/><path class="cls-1" d="M22.84,98h1.47l5.6,13.18H28.08l-1.34-3.24H20.16l-1.36,3.24H17Zm.7,2h0l-2.74,6.47h5.38Z" transform="translate(-5.44 -3.5)"/><path class="cls-1" d="M33.05,98h3.37a17.11,17.11,0,0,1,1.89.11,5.32,5.32,0,0,1,1.68.48,3.1,3.1,0,0,1,1.21,1.09,3.56,3.56,0,0,1,.47,2,3.16,3.16,0,0,1-.88,2.34,4.14,4.14,0,0,1-2.42,1.14l3.74,6.07H40.2l-3.57-5.92h-2v5.92H33.05Zm1.57,5.81H36c.44,0,.89,0,1.35,0a5,5,0,0,0,1.28-.24,2.2,2.2,0,0,0,1-.64,1.84,1.84,0,0,0,.38-1.26,2,2,0,0,0-.28-1.14,1.94,1.94,0,0,0-.73-.66,3.28,3.28,0,0,0-1-.3,8.77,8.77,0,0,0-1.15-.08H34.62Z" transform="translate(-5.44 -3.5)"/><path class="cls-1" d="M55,100.71a3.69,3.69,0,0,0-1.47-1.2,4.27,4.27,0,0,0-1.82-.4,4.64,4.64,0,0,0-2,.44,5,5,0,0,0-1.59,1.2,5.63,5.63,0,0,0-1.05,1.75,6.12,6.12,0,0,0-.37,2.08,6.3,6.3,0,0,0,.37,2.15,5.47,5.47,0,0,0,1,1.73,4.83,4.83,0,0,0,1.58,1.16,4.69,4.69,0,0,0,2,.43,4.89,4.89,0,0,0,2.16-.47,5,5,0,0,0,1.65-1.37l1.17,1a5.3,5.3,0,0,1-2.15,1.75,6.91,6.91,0,0,1-2.83.56,6.62,6.62,0,0,1-4.78-2,6.76,6.76,0,0,1-1.41-2.19,7.79,7.79,0,0,1,0-5.49,6.69,6.69,0,0,1,1.39-2.2A6.5,6.5,0,0,1,49,98.19a6.81,6.81,0,0,1,2.7-.53,7,7,0,0,1,2.57.48,4.73,4.73,0,0,1,2.08,1.58Z" transform="translate(-5.44 -3.5)"/><path class="cls-1" d="M60.28,98h1.56v13.18H60.28Z" transform="translate(-5.44 -3.5)"/><path class="cls-1" d="M66.49,98h2l7.63,10.94h0V98H77.7v13.18h-2l-7.63-11h0v11H66.49Z" transform="translate(-5.44 -3.5)"/><path class="cls-1" d="M88.47,111.5a7.1,7.1,0,0,1-2.76-.52,6.79,6.79,0,0,1-2.18-1.44,6.59,6.59,0,0,1-1.43-2.2,7.75,7.75,0,0,1,0-5.53,6.44,6.44,0,0,1,3.61-3.63,7.61,7.61,0,0,1,5.53,0,6.52,6.52,0,0,1,3.61,3.63,7.75,7.75,0,0,1,0,5.53,6.61,6.61,0,0,1-1.44,2.2A6.75,6.75,0,0,1,91.24,111,7.12,7.12,0,0,1,88.47,111.5Zm0-1.45a5.06,5.06,0,0,0,3.76-1.6,5.34,5.34,0,0,0,1.07-1.74,6,6,0,0,0,.38-2.13,6,6,0,0,0-.38-2.13,5.14,5.14,0,0,0-1.07-1.74,5,5,0,0,0-1.65-1.18,5.51,5.51,0,0,0-4.22,0,5,5,0,0,0-1.65,1.18,5.3,5.3,0,0,0-1.07,1.74,6,6,0,0,0-.38,2.13,6,6,0,0,0,.38,2.13,5.52,5.52,0,0,0,1.07,1.74,5.06,5.06,0,0,0,3.76,1.6Z" transform="translate(-5.44 -3.5)"/><path class="cls-2" d="M99.34,98h2.33l4.46,10.33h0L110.67,98h2.27v13.18h-1.56V100.11h0l-4.72,11.06h-1l-4.73-11.06h0v11.06H99.34Z" transform="translate(-5.44 -3.5)"/><path class="cls-2" d="M117.61,98h8.29v1.45h-6.72v4.13h6.27V105h-6.27v4.69h7v1.46h-8.62Z" transform="translate(-5.44 -3.5)"/><path class="cls-2" d="M134.33,98h1.47l5.6,13.18h-1.83l-1.34-3.24h-6.58l-1.36,3.24h-1.77Zm.7,2h0l-2.74,6.47h5.38Z" transform="translate(-5.44 -3.5)"/><path class="cls-2" d="M151.67,99.44h-4.35v11.73h-1.57V99.44H141.4V98h10.27Z" transform="translate(-5.44 -3.5)"/><path class="cls-2" d="M161.16,100.32a2.33,2.33,0,0,0-1-.93,3.38,3.38,0,0,0-1.36-.28,3.86,3.86,0,0,0-1,.13,2.62,2.62,0,0,0-.9.39,1.88,1.88,0,0,0-.65.69,2,2,0,0,0-.24,1,2.14,2.14,0,0,0,.14.79,1.6,1.6,0,0,0,.46.62,3.19,3.19,0,0,0,.85.53,12,12,0,0,0,1.32.48c.51.16,1,.33,1.48.52a5,5,0,0,1,1.27.71,3,3,0,0,1,.87,1.07,3.49,3.49,0,0,1,.33,1.61,3.54,3.54,0,0,1-.39,1.71,3.74,3.74,0,0,1-1,1.2,4.61,4.61,0,0,1-1.48.71,6.68,6.68,0,0,1-1.73.23,6.49,6.49,0,0,1-1.16-.1,5.8,5.8,0,0,1-1.1-.32,4.27,4.27,0,0,1-1-.56,3.37,3.37,0,0,1-.8-.84l1.34-1.1a2.75,2.75,0,0,0,1.19,1.1,3.63,3.63,0,0,0,1.62.37,3.58,3.58,0,0,0,1-.15,2.9,2.9,0,0,0,.92-.44,2.27,2.27,0,0,0,.67-.71,1.83,1.83,0,0,0,.26-1,2.1,2.1,0,0,0-.2-1,2,2,0,0,0-.63-.66,5.48,5.48,0,0,0-1.08-.5l-1.53-.52a10.35,10.35,0,0,1-1.3-.51,3.84,3.84,0,0,1-1-.71,2.93,2.93,0,0,1-.69-1,4,4,0,0,1,.12-3.07,3.56,3.56,0,0,1,1-1.18,4.72,4.72,0,0,1,1.44-.71,6.12,6.12,0,0,1,3.71.1,4.07,4.07,0,0,1,1.65,1.2Z" transform="translate(-5.44 -3.5)"/><path class="cls-2" d="M154,69.29q-.06-6.62-5.58-12.13t-12.24-5.69q-6.74-.18-12.6,5.69L91.76,89h5.06l29.32-29.32q5.05-5.05,10.3-4.66a14.83,14.83,0,0,1,9.48,4.66A14.28,14.28,0,0,1,150.41,69q.33,5.18-4.72,10.24L135.92,89H141l7.24-7.24q5.86-5.86,5.81-12.48" transform="translate(-5.44 -3.5)"/><path class="cls-2" d="M83.36,16.91a35,35,0,0,1,9.32-6.79,24.3,24.3,0,0,1,20.76-.51,32.71,32.71,0,0,1,10.4,7.3,30.68,30.68,0,0,1,7.3,10.87,29.13,29.13,0,0,1,1.56,12.7q13.56-1.14,23.57,8.86a32.63,32.63,0,0,1,7.3,10.41,24.19,24.19,0,0,1,2,10.52,25.58,25.58,0,0,1-2.65,10.12A34.83,34.83,0,0,1,156.81,89h4.79a39.75,39.75,0,0,0,4.9-7.36,26.57,26.57,0,0,0,3.05-11.44,28,28,0,0,0-2.35-11.79,37.67,37.67,0,0,0-8.28-11.73,36,36,0,0,0-11.22-7.87,27,27,0,0,0-11.21-2.36,29.27,29.27,0,0,0-2.3-11.16,34.08,34.08,0,0,0-7.7-11,37.86,37.86,0,0,0-11.85-8.39,28,28,0,0,0-11.79-2.36A26.75,26.75,0,0,0,91.41,6.56a41.94,41.94,0,0,0-10.58,7.82L6.34,89h4.91Z" transform="translate(-5.44 -3.5)"/><path class="cls-2" d="M129,33.18a26.28,26.28,0,0,0-7.65-13.74q-8.62-8.63-18-8.17T86,19.55L16.55,89h5.52l66.7-66.69q6.9-6.9,14.77-7.19t15.13,7q7.13,7.14,7,15.13T118.55,52.1L81.64,89H86.7l34.38-34.37q6.9-6.9,14.84-7.13t15.18,7q7.13,7.14,6.9,15.07t-7.14,14.83L146.27,89h5.3l1.94-1.94q7.83-7.82,8.34-17.19t-8.11-18Q140.53,38.64,126,46.92A17.32,17.32,0,0,0,129,33.18" transform="translate(-5.44 -3.5)"/><path class="cls-2" d="M121.66,36.92q-.12-6.68-5.64-12.19t-12.19-5.64Q97.16,19,91.3,24.84L27.13,89h5.06L93.83,27.37q5.06-5.06,10.23-4.71a14.51,14.51,0,0,1,9.43,4.6A14.59,14.59,0,0,1,118,36.63q.41,5.23-4.65,10.29L71.3,89h5l39.56-39.56q5.86-5.87,5.75-12.53" transform="translate(-5.44 -3.5)"/></svg>